<?xml version="1.0" encoding="UTF-8"?>
<!DOCTYPE xml>
<svg xmlns="http://www.w3.org/2000/svg">
	<symbol id="logo" viewBox="0 0 35 37" fill="none">
		<g>
			<path d="M31.1473 13.6477L31.1255 13.626C31.1238 13.6247 31.1224 13.6231 31.1215 13.6212L17.5006 0L3.87983 13.6209C3.87826 13.6225 3.8758 13.6256 3.8758 13.6256L3.85333 13.6474C1.77053 15.7419 0.447586 18.4725 0.0948177 21.4052C-0.25795 24.3379 0.379698 27.3044 1.90639 29.8331C3.43309 32.3619 5.76122 34.3077 8.52069 35.3612C11.2802 36.4147 14.3126 36.5157 17.136 35.6477C17.3735 35.5751 17.6275 35.5751 17.8651 35.6477C20.6882 36.5153 23.7205 36.4144 26.4798 35.3607C29.2391 34.307 31.567 32.3613 33.0936 29.8328C34.6202 27.3042 35.2579 24.3379 34.9053 21.4054C34.5526 18.4728 33.2299 15.7422 31.1473 13.6477ZM8.7232 22.6298C8.65689 22.6961 8.6043 22.7749 8.56844 22.8615C8.53257 22.948 8.5141 23.0408 8.51412 23.1346C8.53835 25.5386 9.21776 27.8904 10.4792 29.9371C10.5079 29.9835 10.5211 30.0379 10.517 30.0922C10.513 30.1465 10.4918 30.1982 10.4566 30.2399C10.4213 30.2816 10.3738 30.311 10.3209 30.324C10.2679 30.337 10.2122 30.333 10.1616 30.3124C9.21332 29.9135 8.35182 29.3336 7.62531 28.6053C6.13646 27.1162 5.29946 25.097 5.2981 22.9912C5.29675 20.8855 6.13117 18.8652 7.61812 17.3743L17.5006 7.49273L27.3826 17.3743C28.8698 18.865 29.7045 20.8853 29.703 22.9912C29.7018 25.097 28.8647 27.1162 27.3757 28.6053C26.6492 29.3336 25.7877 29.9135 24.8396 30.3124C24.7889 30.333 24.7332 30.337 24.6802 30.324C24.6273 30.311 24.5798 30.2814 24.5445 30.2399C24.5093 30.1982 24.488 30.1465 24.484 30.092C24.4799 30.0377 24.4931 29.9833 24.5218 29.9369C25.7835 27.8904 26.4633 25.5386 26.4879 23.1346C26.4879 23.0408 26.4692 22.948 26.4332 22.8613C26.3971 22.7746 26.3444 22.696 26.2779 22.6296L21.6037 17.6717C21.5571 17.6329 21.4985 17.6116 21.4378 17.6116C21.3773 17.6116 21.3186 17.6329 21.2721 17.6717C21.2255 17.7104 21.1942 17.7644 21.1833 17.824C21.1724 17.8837 21.1828 17.945 21.2127 17.9978C23.0281 21.283 21.467 26.0017 18.8637 28.6053L18.85 28.6191C18.4907 28.9745 18.0056 29.1738 17.5002 29.1736C16.9948 29.1734 16.5098 28.9738 16.1508 28.6182L16.1382 28.6053C13.5339 26.0017 11.9736 21.2835 13.7893 17.9985C13.8192 17.9457 13.8296 17.8844 13.8187 17.8247C13.8079 17.7651 13.7764 17.7111 13.7299 17.6724C13.6834 17.6336 13.6247 17.6123 13.5642 17.6123C13.5036 17.6123 13.4449 17.6336 13.3984 17.6724L8.7232 22.6298Z" fill="#F53838" />
		</g>
	</symbol>
	<!-- SECTION COUNT SVG -->
	<symbol id="userCount" viewBox="0 0 25 25" fill="none">
		<g>
			<path fill-rule="evenodd" clip-rule="evenodd" d="M12.5 11.3493C13.4548 11.3493 14.3705 10.97 15.0456 10.2949C15.7207 9.61975 16.1 8.70407 16.1 7.74929C16.1 6.79451 15.7207 5.87884 15.0456 5.20371C14.3705 4.52858 13.4548 4.14929 12.5 4.14929C11.5452 4.14929 10.6296 4.52858 9.95442 5.20371C9.27929 5.87884 8.90001 6.79451 8.90001 7.74929C8.90001 8.70407 9.27929 9.61975 9.95442 10.2949C10.6296 10.97 11.5452 11.3493 12.5 11.3493ZM7.39866 22.1493C5.57686 22.1493 4.04225 20.6179 4.73942 18.9347C5.16156 17.9156 5.7803 16.9896 6.56031 16.2096C7.34032 15.4296 8.26633 14.8108 9.28547 14.3887C10.3046 13.9666 11.3969 13.7493 12.5 13.7493C13.6031 13.7493 14.6954 13.9666 15.7145 14.3887C16.7337 14.8108 17.6597 15.4296 18.4397 16.2096C19.2197 16.9896 19.8385 17.9156 20.2606 18.9347C20.9578 20.6179 19.4232 22.1493 17.6014 22.1493H7.39866Z" fill="#F53838" />
		</g>
	</symbol>
	<symbol id="locationCount" viewBox="0 0 24 25" fill="none">
		<g>
			<path d="M19 9.54932C19 8.63006 18.8189 7.71981 18.4672 6.87053C18.1154 6.02125 17.5998 5.24958 16.9497 4.59957C16.2997 3.94956 15.5281 3.43394 14.6788 3.08216C13.8295 2.73038 12.9193 2.54932 12 2.54932C11.0807 2.54932 10.1705 2.73038 9.32122 3.08216C8.47194 3.43394 7.70026 3.94956 7.05025 4.59957C6.40024 5.24958 5.88463 6.02125 5.53284 6.87053C5.18106 7.71981 5 8.63006 5 9.54932C5 10.9363 5.41 12.2263 6.105 13.3143H6.097C8.457 17.0093 12 22.5493 12 22.5493L17.903 13.3143H17.896C18.6164 12.1907 18.9995 10.8841 19 9.54932ZM12 12.5493C11.2044 12.5493 10.4413 12.2332 9.87868 11.6706C9.31607 11.108 9 10.345 9 9.54932C9 8.75367 9.31607 7.99061 9.87868 7.428C10.4413 6.86539 11.2044 6.54932 12 6.54932C12.7956 6.54932 13.5587 6.86539 14.1213 7.428C14.6839 7.99061 15 8.75367 15 9.54932C15 10.345 14.6839 11.108 14.1213 11.6706C13.5587 12.2332 12.7956 12.5493 12 12.5493Z" fill="#F53838" />
		</g>
	</symbol>
	<symbol id="serverCount" viewBox="0 0 25 25" fill="none">
		<g>
			<path d="M20.5 3.54932H4.5C3.96957 3.54932 3.46086 3.76003 3.08579 4.1351C2.71071 4.51018 2.5 5.01888 2.5 5.54932V9.54932C2.5 10.0797 2.71071 10.5885 3.08579 10.9635C3.46086 11.3386 3.96957 11.5493 4.5 11.5493H20.5C21.0304 11.5493 21.5391 11.3386 21.9142 10.9635C22.2893 10.5885 22.5 10.0797 22.5 9.54932V5.54932C22.5 5.01888 22.2893 4.51018 21.9142 4.1351C21.5391 3.76003 21.0304 3.54932 20.5 3.54932ZM15.5 7.54932C15.5 8.1016 15.0523 8.54932 14.5 8.54932C13.9477 8.54932 13.5 8.1016 13.5 7.54932C13.5 6.99703 13.9477 6.54932 14.5 6.54932C15.0523 6.54932 15.5 6.99703 15.5 7.54932ZM19.5 7.54932C19.5 8.1016 19.0523 8.54932 18.5 8.54932C17.9477 8.54932 17.5 8.1016 17.5 7.54932C17.5 6.99703 17.9477 6.54932 18.5 6.54932C19.0523 6.54932 19.5 6.99703 19.5 7.54932ZM20.5 13.5493H4.5C3.96957 13.5493 3.46086 13.76 3.08579 14.1351C2.71071 14.5102 2.5 15.0189 2.5 15.5493V19.5493C2.5 20.0798 2.71071 20.5885 3.08579 20.9635C3.46086 21.3386 3.96957 21.5493 4.5 21.5493H20.5C21.0304 21.5493 21.5391 21.3386 21.9142 20.9635C22.2893 20.5885 22.5 20.0798 22.5 19.5493V15.5493C22.5 15.0189 22.2893 14.5102 21.9142 14.1351C21.5391 13.76 21.0304 13.5493 20.5 13.5493ZM15.5 17.5493C15.5 18.1016 15.0523 18.5493 14.5 18.5493C13.9477 18.5493 13.5 18.1016 13.5 17.5493C13.5 16.997 13.9477 16.5493 14.5 16.5493C15.0523 16.5493 15.5 16.997 15.5 17.5493ZM19.5 17.5493C19.5 18.1016 19.0523 18.5493 18.5 18.5493C17.9477 18.5493 17.5 18.1016 17.5 17.5493C17.5 16.997 17.9477 16.5493 18.5 16.5493C19.0523 16.5493 19.5 16.997 19.5 17.5493Z" fill="#F53838" />
		</g>
	</symbol>
	<!-- SECTION INFOBLOCK SVG -->
	<symbol id="checkbox-circle" viewBox="0 0 25 25" fill="none">
		<g>
			<path d="M12.1215 2.54932C6.60746 2.54932 2.12146 7.03532 2.12146 12.5493C2.12146 18.0633 6.60746 22.5493 12.1215 22.5493C17.6355 22.5493 22.1215 18.0633 22.1215 12.5493C22.1215 7.03532 17.6355 2.54932 12.1215 2.54932ZM10.1225 16.9623L7.11691 13.9632C6.72616 13.5733 6.72537 12.9405 7.11515 12.5496C7.50517 12.1585 8.13847 12.1578 8.52939 12.548L10.1205 14.1363L14.7075 9.54932C15.0979 9.15885 15.731 9.15885 16.1215 9.54932C16.5119 9.93978 16.5119 10.5729 16.1215 10.9633L10.1225 16.9623Z" fill="#2FAB73" />
		</g>
	</symbol>
	<symbol id="checkbox-nonecircle" viewBox="0 0 25 25" fill="none">
		<g>
			<path d="M11.3962 17.2796C11.2649 17.2798 11.1349 17.2542 11.0135 17.2041C10.8922 17.154 10.782 17.0804 10.6892 16.9876L6.44716 12.7446C6.35159 12.6524 6.27533 12.5421 6.22283 12.4201C6.17034 12.2982 6.14266 12.167 6.14142 12.0342C6.14017 11.9014 6.16538 11.7697 6.21557 11.6468C6.26577 11.5238 6.33994 11.4121 6.43377 11.3182C6.52759 11.2242 6.63919 11.1499 6.76205 11.0995C6.88491 11.0492 7.01657 11.0238 7.14935 11.0248C7.28213 11.0259 7.41336 11.0534 7.53541 11.1057C7.65745 11.158 7.76784 11.2341 7.86016 11.3296L11.3952 14.8646L17.7602 8.50156C17.9477 8.31392 18.202 8.20845 18.4673 8.20836C18.7326 8.20827 18.987 8.31355 19.1747 8.50106C19.3623 8.68857 19.4678 8.94294 19.4679 9.20821C19.468 9.47348 19.3627 9.72792 19.1752 9.91556L12.1032 16.9876C12.0103 17.0804 11.9001 17.154 11.7788 17.2041C11.6575 17.2542 11.5274 17.2798 11.3962 17.2796Z" fill="#2FAB73" />
		</g>
	</symbol>
	<!-- SECTION COMMENTS SVG -->
	<symbol id="star" viewBox="0 0 16 17" fill="none">
		<g>
			<path d="M14.1891 6.41802L10.2219 5.84146L8.44844 2.24615C8.4 2.14771 8.32031 2.06802 8.22187 2.01959C7.975 1.89771 7.675 1.99927 7.55156 2.24615L5.77812 5.84146L1.81094 6.41802C1.70156 6.43365 1.60156 6.48521 1.525 6.56334C1.43244 6.65847 1.38143 6.78646 1.38319 6.91918C1.38495 7.0519 1.43933 7.1785 1.53437 7.27115L4.40469 10.0696L3.72656 14.0211C3.71066 14.1131 3.72083 14.2076 3.75592 14.294C3.79102 14.3805 3.84963 14.4554 3.92511 14.5102C4.00059 14.565 4.08992 14.5976 4.18297 14.6042C4.27602 14.6108 4.36907 14.5913 4.45156 14.5477L8 12.6821L11.5484 14.5477C11.6453 14.5993 11.7578 14.6165 11.8656 14.5977C12.1375 14.5508 12.3203 14.293 12.2734 14.0211L11.5953 10.0696L14.4656 7.27115C14.5437 7.19459 14.5953 7.09459 14.6109 6.98521C14.6531 6.71177 14.4625 6.45865 14.1891 6.41802Z" fill="#FEA250" />
		</g>
	</symbol>
	<!-- SECTION FOOTER SVG -->
	<symbol id="facebook" viewBox="0 0 40 40" fill="none">
		<g width="40" height="40">
			<rect width="40" height="40" rx="20" fill="white" />
			<path d="M21.6571 20.3648H25.3793L25.9637 16.5605H21.6563V14.4813C21.6563 12.901 22.1696 11.4996 23.6389 11.4996H26V8.17974C25.5852 8.12338 24.7078 8 23.05 8C19.5882 8 17.5587 9.8393 17.5587 14.0297V16.5605H14V20.3648H17.5587V30.821C18.2634 30.9276 18.9773 31 19.7101 31C20.3724 31 21.0189 30.9391 21.6571 30.8522V20.3648Z" fill="#F53838" />
		</g>
	</symbol>
	<symbol id="twitter" viewBox="0 0 40 40" fill="none">
		<g>
			<rect width="40" height="40" rx="20" fill="white" />
			<path d="M30.6 14.9C29.9 15.2 29.1 15.4 28.3 15.5C29.1 15 29.8 14.2 30.1 13.3C29.3 13.8 28.5 14.1 27.5 14.3C26.8 13.5 25.7 13 24.6 13C22.4 13 20.6 14.8 20.6 17C20.6 17.3 20.6 17.6 20.7 17.9C17.4 17.7 14.4 16.1 12.4 13.7C12.1 14.3 11.9 15 11.9 15.7C11.9 17.1 12.6 18.3 13.7 19C13 19 12.4 18.8 11.9 18.5C11.9 20.4 13.3 22.1 15.1 22.4C14.8 22.5 14.4 22.5 14 22.5C13.7 22.5 13.5 22.5 13.2 22.4C13.7 24 15.2 25.2 17 25.2C15.6 26.3 13.9 26.9 12 26.9C11.7 26.9 11.4 26.9 11 26.8C12.8 27.9 14.9 28.6 17.2 28.6C24.6 28.6 28.6 22.5 28.6 17.2V16.7C29.4 16.4 30.1 15.7 30.6 14.9Z" fill="#F53838" />
		</g>
	</symbol>
	<symbol id="instagram" viewBox="0 0 40 40" fill="none">
		<g>
			<rect width="40" height="40" rx="20" fill="white" />
			<path d="M20 11.8072C22.6506 11.8072 23.0121 11.8072 24.0964 11.8072C25.0602 11.8072 25.5422 12.0482 25.9036 12.1687C26.3855 12.4096 26.747 12.5301 27.1084 12.8916C27.4699 13.253 27.7108 13.6145 27.8313 14.0964C27.9518 14.4578 28.0723 14.9398 28.1928 15.9036C28.1928 16.988 28.1928 17.2289 28.1928 20C28.1928 22.7711 28.1928 23.0121 28.1928 24.0964C28.1928 25.0602 27.9518 25.5422 27.8313 25.9036C27.5904 26.3855 27.4699 26.747 27.1084 27.1084C26.747 27.4699 26.3855 27.7108 25.9036 27.8313C25.5422 27.9518 25.0602 28.0723 24.0964 28.1928C23.0121 28.1928 22.7711 28.1928 20 28.1928C17.2289 28.1928 16.988 28.1928 15.9036 28.1928C14.9398 28.1928 14.4578 27.9518 14.0964 27.8313C13.6145 27.5904 13.253 27.4699 12.8916 27.1084C12.5301 26.747 12.2892 26.3855 12.1687 25.9036C12.0482 25.5422 11.9277 25.0602 11.8072 24.0964C11.8072 23.0121 11.8072 22.7711 11.8072 20C11.8072 17.2289 11.8072 16.988 11.8072 15.9036C11.8072 14.9398 12.0482 14.4578 12.1687 14.0964C12.4096 13.6145 12.5301 13.253 12.8916 12.8916C13.253 12.5301 13.6145 12.2892 14.0964 12.1687C14.4578 12.0482 14.9398 11.9277 15.9036 11.8072C16.988 11.8072 17.3494 11.8072 20 11.8072ZM20 10C17.2289 10 16.988 10 15.9036 10C14.8193 10 14.0964 10.241 13.494 10.4819C12.8916 10.7229 12.2892 11.0843 11.6867 11.6867C11.0843 12.2892 10.8434 12.7711 10.4819 13.494C10.241 14.0964 10.1205 14.8193 10 15.9036C10 16.988 10 17.3494 10 20C10 22.7711 10 23.0121 10 24.0964C10 25.1807 10.241 25.9036 10.4819 26.506C10.7229 27.1084 11.0843 27.7108 11.6867 28.3133C12.2892 28.9157 12.7711 29.1566 13.494 29.5181C14.0964 29.759 14.8193 29.8795 15.9036 30C16.988 30 17.3494 30 20 30C22.6506 30 23.0121 30 24.0964 30C25.1807 30 25.9036 29.759 26.506 29.5181C27.1084 29.2771 27.7108 28.9157 28.3133 28.3133C28.9157 27.7108 29.1566 27.2289 29.5181 26.506C29.759 25.9036 29.8795 25.1807 30 24.0964C30 23.0121 30 22.6506 30 20C30 17.3494 30 16.988 30 15.9036C30 14.8193 29.759 14.0964 29.5181 13.494C29.2771 12.8916 28.9157 12.2892 28.3133 11.6867C27.7108 11.0843 27.2289 10.8434 26.506 10.4819C25.9036 10.241 25.1807 10.1205 24.0964 10C23.0121 10 22.7711 10 20 10Z" fill="#F53838" />
			<path d="M20 14.8193C17.1084 14.8193 14.8193 17.1084 14.8193 20C14.8193 22.8916 17.1084 25.1807 20 25.1807C22.8916 25.1807 25.1807 22.8916 25.1807 20C25.1807 17.1084 22.8916 14.8193 20 14.8193ZM20 23.3735C18.1928 23.3735 16.6265 21.9277 16.6265 20C16.6265 18.1928 18.0723 16.6265 20 16.6265C21.8072 16.6265 23.3735 18.0723 23.3735 20C23.3735 21.8072 21.8072 23.3735 20 23.3735Z" fill="#F53838" />
			<path d="M25.3012 15.9036C25.9666 15.9036 26.506 15.3642 26.506 14.6988C26.506 14.0334 25.9666 13.494 25.3012 13.494C24.6358 13.494 24.0964 14.0334 24.0964 14.6988C24.0964 15.3642 24.6358 15.9036 25.3012 15.9036Z" fill="#F53838" />
		</g>
	</symbol>
</svg>
